<?xml version="1.0" encoding="utf-8"?>
<!-- Generator: Adobe Illustrator 24.0.2, SVG Export Plug-In . SVG Version: 6.00 Build 0)  -->
<svg version="1.1" id="Capa_1" xmlns="http://www.w3.org/2000/svg" xmlns:xlink="http://www.w3.org/1999/xlink" x="0px" y="0px"
	 viewBox="0 0 1200 402" style="enable-background:new 0 0 1200 402;" xml:space="preserve">
<style type="text/css">
	.st0{fill:#1ED760;}
</style>
<g>
	<g>
		<g>
			<path class="st0" d="M224.72,45.09c-90.15,0-163.24,73.08-163.24,163.23c0,90.16,73.09,163.24,163.24,163.24
				c90.16,0,163.24-73.08,163.24-163.24C387.96,118.17,314.88,45.09,224.72,45.09z M299.59,280.53c-2.93,4.81-9.2,6.32-13.99,3.39
				c-38.33-23.43-86.58-28.72-143.4-15.74c-5.48,1.26-10.93-2.18-12.18-7.65c-1.25-5.48,2.16-10.93,7.65-12.18
				c62.18-14.22,115.52-8.1,158.55,18.19C301.01,269.47,302.52,275.74,299.59,280.53z M319.56,236.08
				c-3.69,5.99-11.52,7.87-17.51,4.19c-43.87-26.97-110.76-34.78-162.66-19.02c-6.73,2.03-13.84-1.76-15.88-8.48
				c-2.03-6.73,1.77-13.83,8.49-15.87c59.29-17.99,132.99-9.28,183.37,21.69C321.36,222.27,323.24,230.11,319.56,236.08z
				 M321.28,189.8c-52.62-31.25-139.41-34.12-189.64-18.88c-8.07,2.45-16.6-2.11-19.04-10.17c-2.44-8.07,2.1-16.59,10.18-19.05
				c57.66-17.5,153.51-14.12,214.09,21.84c7.26,4.31,9.64,13.68,5.33,20.92C337.9,191.72,328.52,194.11,321.28,189.8z"/>
		</g>
	</g>
	<g>
		<g>
			<path class="st0" d="M505.6,195.78c-28.18-6.72-33.2-11.44-33.2-21.35c0-9.37,8.82-15.67,21.93-15.67
				c12.71,0,25.31,4.79,38.52,14.64c0.4,0.3,0.9,0.42,1.39,0.34c0.49-0.07,0.93-0.34,1.22-0.75l13.76-19.4
				c0.57-0.8,0.41-1.9-0.35-2.51c-15.72-12.62-33.43-18.75-54.13-18.75c-30.43,0-51.69,18.26-51.69,44.39
				c0,28.02,18.34,37.94,50.02,45.6c26.97,6.21,31.52,11.42,31.52,20.72c0,10.31-9.2,16.72-24.02,16.72
				c-16.45,0-29.87-5.54-44.88-18.54c-0.37-0.32-0.88-0.47-1.35-0.44c-0.5,0.04-0.95,0.27-1.27,0.65l-15.43,18.36
				c-0.65,0.76-0.57,1.9,0.18,2.56c17.47,15.59,38.95,23.83,62.13,23.83c32.79,0,53.98-17.92,53.98-45.65
				C553.94,217.1,539.94,204.13,505.6,195.78z"/>
			<path class="st0" d="M628.13,167.99c-14.21,0-25.87,5.6-35.49,17.07v-12.91c0-1.02-0.83-1.85-1.84-1.85h-25.24
				c-1.02,0-1.84,0.83-1.84,1.85v143.47c0,1.02,0.82,1.85,1.84,1.85h25.24c1.02,0,1.84-0.83,1.84-1.85v-45.29
				c9.62,10.79,21.28,16.06,35.49,16.06c26.41,0,53.15-20.33,53.15-59.19C681.28,188.32,654.54,167.99,628.13,167.99z M651.93,227.2
				c0,19.79-12.19,33.6-29.65,33.6c-17.26,0-30.27-14.44-30.27-33.6c0-19.16,13.02-33.6,30.27-33.6
				C639.46,193.59,651.93,207.72,651.93,227.2z"/>
			<path class="st0" d="M749.81,167.99c-34.01,0-60.66,26.19-60.66,59.63c0,33.08,26.46,58.99,60.24,58.99
				c34.13,0,60.86-26.1,60.86-59.41C810.25,193.99,783.71,167.99,749.81,167.99z M749.81,261c-18.09,0-31.73-14.54-31.73-33.81
				c0-19.35,13.17-33.4,31.31-33.4c18.21,0,31.94,14.54,31.94,33.82C781.33,246.97,768.07,261,749.81,261z"/>
			<path class="st0" d="M882.89,170.3h-27.77V141.9c0-1.02-0.82-1.85-1.84-1.85h-25.23c-1.02,0-1.85,0.83-1.85,1.85v28.39h-12.13
				c-1.02,0-1.84,0.83-1.84,1.85v21.69c0,1.02,0.82,1.85,1.84,1.85h12.13v56.12c0,22.68,11.29,34.18,33.55,34.18
				c9.05,0,16.56-1.87,23.64-5.88c0.57-0.32,0.93-0.94,0.93-1.6v-20.65c0-0.64-0.33-1.24-0.88-1.57c-0.55-0.35-1.23-0.36-1.8-0.08
				c-4.86,2.45-9.56,3.57-14.81,3.57c-8.1,0-11.71-3.68-11.71-11.92v-52.17h27.77c1.02,0,1.84-0.83,1.84-1.85v-21.69
				C884.73,171.13,883.91,170.3,882.89,170.3z"/>
			<path class="st0" d="M979.64,170.41v-3.49c0-10.26,3.93-14.83,12.76-14.83c5.26,0,9.49,1.05,14.22,2.62
				c0.58,0.18,1.19,0.09,1.66-0.26c0.49-0.35,0.76-0.91,0.76-1.5v-21.27c0-0.81-0.52-1.53-1.31-1.77c-5-1.49-11.4-3.01-20.98-3.01
				c-23.31,0-35.63,13.13-35.63,37.95v5.34h-12.12c-1.02,0-1.85,0.83-1.85,1.85v21.8c0,1.02,0.83,1.85,1.85,1.85h12.12v86.57
				c0,1.02,0.82,1.85,1.84,1.85h25.24c1.02,0,1.85-0.83,1.85-1.85v-86.57h23.56l36.1,86.54c-4.1,9.09-8.13,10.9-13.63,10.9
				c-4.45,0-9.13-1.33-13.92-3.95c-0.45-0.25-0.98-0.29-1.47-0.14c-0.48,0.17-0.89,0.53-1.09,1l-8.55,18.77
				c-0.41,0.89-0.06,1.93,0.79,2.39c8.93,4.84,16.99,6.9,26.95,6.9c18.63,0,28.93-8.68,38.01-32.03l43.78-113.14
				c0.22-0.57,0.15-1.21-0.19-1.72c-0.35-0.5-0.91-0.8-1.52-0.8h-26.27c-0.79,0-1.49,0.5-1.75,1.24l-26.91,76.87l-29.48-76.92
				c-0.27-0.72-0.96-1.19-1.72-1.19H979.64z"/>
			<path class="st0" d="M923.55,170.3h-25.24c-1.02,0-1.85,0.83-1.85,1.85v110.1c0,1.02,0.83,1.85,1.85,1.85h25.24
				c1.02,0,1.85-0.83,1.85-1.85v-110.1C925.4,171.13,924.57,170.3,923.55,170.3z"/>
			<path class="st0" d="M911.06,120.16c-10,0-18.11,8.09-18.11,18.09c0,10,8.11,18.11,18.11,18.11c9.99,0,18.1-8.1,18.1-18.11
				C929.16,128.26,921.05,120.16,911.06,120.16z"/>
		</g>
		<g>
			<path class="st0" d="M1132.15,205.69c-9.99,0-17.76-8.02-17.76-17.76c0-9.74,7.87-17.85,17.85-17.85
				c9.99,0,17.76,8.02,17.76,17.75C1150,197.57,1142.13,205.69,1132.15,205.69z M1132.24,171.85c-9.1,0-15.98,7.23-15.98,16.09
				c0,8.85,6.83,15.99,15.89,15.99c9.09,0,15.99-7.23,15.99-16.09C1148.13,178.98,1141.29,171.85,1132.24,171.85z M1136.18,189.66
				l5.02,7.03h-4.24l-4.52-6.45h-3.89v6.45h-3.55v-18.64h8.31c4.33,0,7.18,2.22,7.18,5.95
				C1140.5,187.05,1138.74,188.92,1136.18,189.66z M1133.18,181.25h-4.62v5.9h4.62c2.31,0,3.69-1.13,3.69-2.95
				C1136.87,182.28,1135.49,181.25,1133.18,181.25z"/>
		</g>
	</g>
</g>
</svg>
